<svg width="404" height="112" viewBox="0 0 404 112" fill="none" xmlns="http://www.w3.org/2000/svg">
<g clip-path="url(#clip0_2101_351)">
<path d="M119.72 61.6771C119.72 46.2015 130.854 34.7654 146.137 34.7654C158.346 34.7654 168.023 41.9335 170.402 54.359H161.34C159.649 46.6587 153.199 42.6943 145.752 42.6943C134.999 42.6943 128.167 50.7767 128.167 61.602C128.167 72.4274 135.078 81.6527 146.137 81.6527C154.659 81.6527 160.267 77.2311 162.185 69.6059H170.707C168.556 82.5671 158.652 89.6566 146.133 89.6566C130.775 89.6566 119.717 77.5348 119.717 61.6771H119.72Z" fill="#F7FF7E"/>
<path d="M173.398 34.2298H181.23V88.8924H173.398V34.2298Z" fill="#F7FF7E"/>
<path d="M184.993 43.2265C184.993 40.7121 187.065 38.6514 189.601 38.6514C192.137 38.6514 194.21 40.7087 194.21 43.2265C194.21 45.7444 192.137 47.8016 189.601 47.8016C187.065 47.8016 184.993 45.7444 184.993 43.2265ZM185.914 52.2983H193.746V88.8924H185.914V52.2983Z" fill="#F7FF7E"/>
<path d="M216.169 57.9413C210.333 57.9413 206.722 60.6843 205.571 68.2344V88.8958H197.739V52.3017H205.571V62.977H205.725C207.337 55.2767 211.639 51.5409 219.547 51.5409C226.306 51.5409 233.062 55.0481 233.062 65.1878V88.8992H225.231V67.477C225.231 60.6911 221.468 57.9481 216.169 57.9481V57.9413Z" fill="#F7FF7E"/>
<path d="M248.344 71.6632H257.022C257.943 79.1349 263.242 82.4135 271.073 82.4135C278.905 82.4135 282.747 78.4491 282.747 73.9525C282.747 61.3735 250.417 68.8451 250.417 49.8623C250.417 40.9407 257.252 34.6904 269.616 34.6904C281.981 34.6904 288.507 40.4084 289.967 50.7016H281.596C280.52 44.2978 275.912 41.9335 269.31 41.9335C262.709 41.9335 258.791 44.9051 258.791 49.4051C258.791 61.602 290.582 53.5981 290.582 73.7239C290.582 83.4814 283.287 89.6566 270.616 89.6566C257.946 89.6566 249.65 84.3958 248.348 71.6632H248.344Z" fill="#F7FF7E"/>
<path d="M293.036 76.0097V52.2983H300.868V73.7205C300.868 80.5064 304.785 83.2494 310.16 83.2494C315.919 83.2494 319.377 80.4279 320.528 72.8812V52.2983H328.36V88.8924H320.528V78.2171H320.373C318.761 85.8423 314.459 89.6532 306.552 89.6532C299.792 89.6532 293.036 86.146 293.036 76.0063V76.0097Z" fill="#F7FF7E"/>
<path d="M331.971 43.2265C331.971 40.7121 334.043 38.6514 336.58 38.6514C339.116 38.6514 341.188 40.7087 341.188 43.2265C341.188 45.7444 339.116 47.8016 336.58 47.8016C334.043 47.8016 331.971 45.7444 331.971 43.2265ZM332.892 52.2983H340.724V88.8924H332.892V52.2983Z" fill="#F7FF7E"/>
<path d="M350.862 83.7851V58.9307H343.796V52.2983H350.862V41.0157H358.388L358.312 52.2983H367.529V58.9307H358.542V80.5815C358.542 81.8029 359.233 82.1816 360.233 82.1816H367.913V88.8924H356.47C353.013 88.8924 350.865 86.6066 350.865 83.7851H350.862Z" fill="#F7FF7E"/>
<path d="M368.14 70.6738C368.14 59.9235 375.742 51.5375 386.725 51.5375C396.017 51.5375 404.003 57.409 404.003 71.0559V72.4274H375.591C376.206 78.8312 380.735 83.0243 386.879 83.0243C390.718 83.0243 394.481 81.3457 395.557 77.8384H403.158C402.007 84.928 395.017 89.6566 386.879 89.6566C376.051 89.6566 368.14 81.6527 368.14 70.6738ZM396.399 68.6131C396.093 61.5986 391.56 58.32 386.646 58.32C380.886 58.32 376.587 62.588 375.663 68.6131H396.395H396.399Z" fill="#F7FF7E"/>
<path d="M39.2378 62.7927C38.9491 62.1718 38.2618 61.8375 37.5883 61.9739L4.84888 68.7018C2.02409 69.2818 0 71.7519 0 74.6144V105.961C0 109.298 2.7217 112 6.08258 112H21.7804C24.5846 112 27.2341 110.704 28.9421 108.496L53.9528 76.1428C54.6195 75.2796 54.1556 74.0207 53.0868 73.7955C46.9149 72.5059 41.8048 68.3504 39.2412 62.7927H39.2378Z" fill="#F7FF7E"/>
<path d="M4.89699 41.7561L35.9525 47.8494L37.2584 48.1053C37.9525 48.2417 38.6536 47.8767 38.9216 47.2285C41.2962 41.4797 46.3444 37.1025 52.5335 35.6218C53.5679 35.3727 53.9975 34.1445 53.3583 33.2984L30.0246 2.41209C28.8768 0.893871 27.0761 0 25.1654 0H6.07571C2.71826 0 0 2.69867 0 6.03192V35.8435C0 38.723 2.05158 41.2 4.89699 41.7595V41.7561Z" fill="#F7FF7E"/>
<path d="M74.4274 51.2372L100.442 47.1261C101.376 46.9282 102.046 46.1094 102.046 45.1576V18.6655C102.046 16.7379 100.472 15.1719 98.5275 15.1719H82.3176C81.2076 15.1719 80.1629 15.6939 79.4962 16.5776L60.7811 41.4865L59.6264 43.0218L52.537 52.4552C51.8703 53.3423 52.5095 54.6012 53.6195 54.6012" fill="#F7FF7E"/>
<path d="M74.4068 62.7962L100.421 66.9073C101.356 67.1052 102.026 67.924 102.026 68.8758V95.3644C102.026 97.2921 100.452 98.8581 98.5068 98.8581H82.2969C81.1869 98.8581 80.1422 98.3361 79.4756 97.4524L60.7605 72.5434L59.6058 71.0082L52.5164 61.5748C51.8497 60.6877 52.4889 59.4288 53.5988 59.4288" fill="#F7FF7E"/>
</g>
<defs>
<clipPath id="clip0_2101_351">
<rect width="404" height="112" fill="white"/>
</clipPath>
</defs>
</svg>
